<?xml version="1.0" encoding="UTF-8" standalone="no"?>
<!-- Created with Inkscape (http://www.inkscape.org/) -->

<svg
   width="300"
   height="300"
   viewBox="0 0 79.374998 79.375"
   version="1.1"
   id="svg1"
   inkscape:version="1.4 (e7c3feb1, 2024-10-09)"
   sodipodi:docname="logo.svg"
   xmlns:inkscape="http://www.inkscape.org/namespaces/inkscape"
   xmlns:sodipodi="http://sodipodi.sourceforge.net/DTD/sodipodi-0.dtd"
   xmlns:xlink="http://www.w3.org/1999/xlink"
   xmlns="http://www.w3.org/2000/svg"
   xmlns:svg="http://www.w3.org/2000/svg">
  <sodipodi:namedview
     id="namedview1"
     pagecolor="#ffffff"
     bordercolor="#000000"
     borderopacity="0.25"
     inkscape:showpageshadow="2"
     inkscape:pageopacity="0.0"
     inkscape:pagecheckerboard="0"
     inkscape:deskcolor="#d1d1d1"
     inkscape:document-units="mm"
     showguides="false"
     inkscape:zoom="0.93478235"
     inkscape:cx="81.302348"
     inkscape:cy="140.67446"
     inkscape:window-width="1440"
     inkscape:window-height="900"
     inkscape:window-x="0"
     inkscape:window-y="0"
     inkscape:window-maximized="0"
     inkscape:current-layer="layer1" />
  <defs
     id="defs1">
    <rect
       x="17.163357"
       y="15.733078"
       width="190.22721"
       height="41.478113"
       id="rect20" />
  </defs>
  <g
     inkscape:label="Layer 1"
     inkscape:groupmode="layer"
     id="layer1">
    <g
       id="g12"
       transform="rotate(18.550863,38.790117,39.745091)" />
    <path
       style="display:none;fill:none;stroke:#000000;stroke-width:3;stroke-linecap:round;stroke-opacity:1"
       d="M 20.072585,42.768023 C 24.350164,27.009372 37.586889,-1.2357592 39.664537,26.342986"
       id="path20"
       sodipodi:nodetypes="cc"
       inkscape:label="textpath" />
    <g
       id="g21"
       sodipodi:insensitive="true"
       transform="translate(2.131706,3.7087637)">
      <path
         id="rect6"
         style="display:inline;opacity:1;mix-blend-mode:normal;fill:#a5e7e4;fill-opacity:1;stroke:none;stroke-width:1;stroke-linecap:round;stroke-dasharray:none;stroke-opacity:1"
         d="m 50.237961,20.522594 c 2.765157,-0.07703 -1.945495,9.89892 -0.464931,18.766559 1.503937,9.577758 -4.37266,17.324986 -6.851493,20.447843 -7.320326,2.392 -12.405688,-0.499881 -26.268919,-1.75908 3.380466,-3.588634 8.646598,-7.718268 9.025497,-16.832919 0.236841,-5.69734 -0.595144,-11.442079 2.232611,-21.371597 1.691593,-0.395409 10.83833,1.069259 22.327235,0.749194 z"
         sodipodi:nodetypes="ccccscc"
         transform="rotate(18.550862,38.790117,39.745093)" />
      <g
         id="g6"
         transform="rotate(18.550862,38.790117,39.745093)">
        <path
           style="fill:#784421;stroke-width:3"
           d="M 20.912933,60.040355 25.185468,26.759558"
           id="path1" />
        <path
           style="fill:none;stroke:#000000;stroke-width:3;stroke-linecap:round;stroke-opacity:1"
           d="m 16.865269,58.466264 c 0,0 9.894289,-6.970977 8.320199,-17.989618 C 23.611376,29.458002 28.262087,5.2694923 37.032027,28.431128"
           id="path2"
           sodipodi:nodetypes="csc" />
        <path
           style="fill:none;stroke:#000000;stroke-width:3;stroke-linecap:round;stroke-opacity:1"
           d="m 40.926386,60.714966 c 0,0 9.894289,-6.970977 8.320199,-17.989618 -1.574092,-11.018644 -1e-6,-35.754371 11.468381,-13.941957"
           id="path3"
           sodipodi:nodetypes="csc" />
        <path
           style="fill:none;stroke:#000000;stroke-width:3;stroke-linecap:round;stroke-opacity:1"
           d="M 16.908345,58.554225 40.972173,60.66918"
           id="path4"
           sodipodi:nodetypes="cc" />
        <path
           style="fill:none;stroke:#000000;stroke-width:3;stroke-linecap:round;stroke-opacity:1"
           d="m 37.103592,28.558521 23.595065,0.527097"
           id="path5"
           sodipodi:nodetypes="cc" />
        <path
           style="fill:none;stroke:#000000;stroke-width:3;stroke-linecap:round;stroke-opacity:1"
           d="M 31.085197,18.841406 53.51912,20.238322"
           id="path6"
           sodipodi:nodetypes="cc" />
      </g>
      <path
         id="rect7"
         style="fill:#ffffff;fill-opacity:1;stroke:#000000;stroke-linecap:round"
         d="m 32.673314,18.646242 20.144631,0.58636 c 3.068172,2.579983 5.882699,6.567229 6.684502,9.850844 L 37.716009,28.73163 C 36.818596,27.527439 34.622994,21.108647 32.673314,18.646242 Z"
         sodipodi:nodetypes="ccccc"
         transform="rotate(18.550862,38.790117,39.745093)" />
      <path
         style="fill:none;fill-opacity:1;stroke:#000000;stroke-width:1;stroke-linecap:round;stroke-dasharray:none;stroke-opacity:1"
         d="m 29.927512,33.814638 c 0,0 11.705264,4.137585 13.586946,5.397548 1.881681,1.259959 1.881681,1.259959 1.881681,1.259959"
         id="path16" />
      <path
         style="fill:none;fill-opacity:1;stroke:#000000;stroke-width:1;stroke-linecap:round;stroke-dasharray:none;stroke-opacity:1"
         d="m 29.507892,39.435078 c 0,0 10.836404,4.357632 12.864724,5.364683 l 2.603902,1.292824"
         id="path17"
         sodipodi:nodetypes="csc" />
      <path
         style="fill:none;fill-opacity:1;stroke:#000000;stroke-width:1;stroke-linecap:round;stroke-dasharray:none;stroke-opacity:1"
         d="m 29.507892,39.435078 c 0,0 10.836404,4.357632 12.864724,5.364683 l 2.603902,1.292824"
         id="path18"
         sodipodi:nodetypes="csc" />
      <path
         style="fill:none;fill-opacity:1;stroke:#000000;stroke-width:1;stroke-linecap:round;stroke-dasharray:none;stroke-opacity:1"
         d="m 27.332967,43.418966 c 0,0 10.836404,4.357633 12.864724,5.364683 l 2.603902,1.292825"
         id="path19"
         sodipodi:nodetypes="csc" />
      <text
         xml:space="preserve"
         id="text20"
         style="font-style:normal;font-variant:normal;font-weight:normal;font-stretch:normal;font-size:8.46667px;font-family:'Hoefler Text';-inkscape-font-specification:'Hoefler Text';text-align:start;writing-mode:lr-tb;direction:ltr;text-anchor:start;white-space:pre;fill:#000000;fill-opacity:0.531818;stroke:none;stroke-width:1.88976;stroke-linecap:round;stroke-linejoin:round;stroke-dasharray:none;stroke-opacity:1"><textPath
           xlink:href="#path20"
           id="textPath20"><tspan
             id="tspan20"
             style="font-style:normal;font-variant:normal;font-weight:300;font-stretch:normal;font-size:8.46667px;font-family:Noteworthy;-inkscape-font-specification:'Noteworthy Light';fill:#000000;fill-opacity:1;stroke:none;stroke-width:1.88976;stroke-linecap:round;stroke-linejoin:round;stroke-dasharray:none;stroke-opacity:1">Docu Flow</tspan></textPath></text>
    </g>
  </g>
</svg>
